<mxfile host="65bd71144e">
    <diagram id="2__aHOX-zENLIjsoHyxn" name="Page-1">
        <mxGraphModel dx="990" dy="525" grid="1" gridSize="10" guides="1" tooltips="1" connect="1" arrows="1" fold="1" page="1" pageScale="1" pageWidth="850" pageHeight="1100" math="0" shadow="0">
            <root>
                <mxCell id="0"/>
                <mxCell id="1" parent="0"/>
                <mxCell id="78" style="edgeStyle=none;html=1;exitX=0;exitY=0.5;exitDx=0;exitDy=0;entryX=1;entryY=0.5;entryDx=0;entryDy=0;rounded=0;dashed=1;" parent="1" source="74" target="76" edge="1">
                    <mxGeometry relative="1" as="geometry">
                        <Array as="points">
                            <mxPoint x="160" y="200"/>
                            <mxPoint x="160" y="240"/>
                        </Array>
                    </mxGeometry>
                </mxCell>
                <mxCell id="79" style="edgeStyle=none;rounded=0;html=1;exitX=0;exitY=0.5;exitDx=0;exitDy=0;entryX=1;entryY=0.5;entryDx=0;entryDy=0;dashed=1;" parent="1" source="74" target="77" edge="1">
                    <mxGeometry relative="1" as="geometry">
                        <Array as="points">
                            <mxPoint x="160" y="200"/>
                            <mxPoint x="160" y="160"/>
                        </Array>
                    </mxGeometry>
                </mxCell>
                <mxCell id="74" value="Drawable" style="rounded=0;whiteSpace=wrap;html=1;shadow=0;fontFamily=Lucida Console;dashed=1;" parent="1" vertex="1">
                    <mxGeometry x="220" y="180" width="80" height="40" as="geometry"/>
                </mxCell>
                <mxCell id="73" value="Drawable" style="rounded=0;whiteSpace=wrap;html=1;shadow=0;fontFamily=Lucida Console;dashed=1;" parent="1" vertex="1">
                    <mxGeometry x="380" y="180" width="80" height="40" as="geometry"/>
                </mxCell>
                <mxCell id="68" value="" style="rounded=0;whiteSpace=wrap;html=1;shadow=0;fontFamily=Lucida Console;dashed=1;" parent="1" vertex="1">
                    <mxGeometry x="200" y="80" width="40" height="20" as="geometry"/>
                </mxCell>
                <mxCell id="67" value="" style="rounded=0;whiteSpace=wrap;html=1;shadow=0;fontFamily=Lucida Console;dashed=1;" parent="1" vertex="1">
                    <mxGeometry x="640" y="80" width="40" height="20" as="geometry"/>
                </mxCell>
                <mxCell id="45" value="" style="rounded=0;whiteSpace=wrap;html=1;shadow=0;fontFamily=Lucida Console;dashed=1;" parent="1" vertex="1">
                    <mxGeometry x="200" width="20" height="20" as="geometry"/>
                </mxCell>
                <mxCell id="44" value="" style="rounded=0;whiteSpace=wrap;html=1;shadow=0;fontFamily=Lucida Console;dashed=1;" parent="1" vertex="1">
                    <mxGeometry x="660" width="20" height="20" as="geometry"/>
                </mxCell>
                <mxCell id="9" value="" style="rounded=0;whiteSpace=wrap;html=1;shadow=0;fontFamily=Lucida Console;dashed=1;fillColor=default;" parent="1" vertex="1">
                    <mxGeometry x="200" y="300" width="40" height="20" as="geometry"/>
                </mxCell>
                <mxCell id="10" value="" style="rounded=0;whiteSpace=wrap;html=1;shadow=0;fontFamily=Lucida Console;dashed=1;" parent="1" vertex="1">
                    <mxGeometry x="640" y="300" width="40" height="20" as="geometry"/>
                </mxCell>
                <mxCell id="15" style="edgeStyle=none;html=1;exitX=0.5;exitY=1;exitDx=0;exitDy=0;entryX=1;entryY=0;entryDx=0;entryDy=0;dashed=1;fontFamily=Lucida Console;" parent="1" source="3" target="19" edge="1">
                    <mxGeometry relative="1" as="geometry"/>
                </mxCell>
                <mxCell id="16" style="edgeStyle=none;html=1;dashed=1;fontFamily=Lucida Console;entryX=0;entryY=0;entryDx=0;entryDy=0;rounded=0;" parent="1" target="6" edge="1">
                    <mxGeometry relative="1" as="geometry">
                        <mxPoint x="540" y="260" as="targetPoint"/>
                        <mxPoint x="340" y="260" as="sourcePoint"/>
                        <Array as="points">
                            <mxPoint x="340" y="260"/>
                            <mxPoint x="540" y="260"/>
                        </Array>
                    </mxGeometry>
                </mxCell>
                <mxCell id="28" style="edgeStyle=none;rounded=0;html=1;exitX=0.5;exitY=0;exitDx=0;exitDy=0;dashed=1;fontFamily=Lucida Console;fontSize=10;entryX=0;entryY=1;entryDx=0;entryDy=0;" parent="1" source="3" target="58" edge="1">
                    <mxGeometry relative="1" as="geometry">
                        <mxPoint x="340" y="90" as="targetPoint"/>
                    </mxGeometry>
                </mxCell>
                <mxCell id="3" value="Drawable" style="rounded=0;whiteSpace=wrap;html=1;shadow=0;fontFamily=Lucida Console;" parent="1" vertex="1">
                    <mxGeometry x="300" y="180" width="80" height="40" as="geometry"/>
                </mxCell>
                <mxCell id="4" value="FwdMtlInst*" style="rounded=0;whiteSpace=wrap;html=1;shadow=0;fontFamily=Lucida Console;" parent="1" vertex="1">
                    <mxGeometry x="340" y="300" width="100" height="20" as="geometry"/>
                </mxCell>
                <mxCell id="5" value="FwdMtlInst*" style="rounded=0;whiteSpace=wrap;html=1;shadow=0;fontFamily=Lucida Console;" parent="1" vertex="1">
                    <mxGeometry x="440" y="300" width="100" height="20" as="geometry"/>
                </mxCell>
                <mxCell id="6" value="FwdMtlInst*" style="rounded=0;whiteSpace=wrap;html=1;shadow=0;fontFamily=Lucida Console;" parent="1" vertex="1">
                    <mxGeometry x="540" y="300" width="100" height="20" as="geometry"/>
                </mxCell>
                <mxCell id="11" value="materialOffset" style="text;html=1;strokeColor=none;fillColor=none;align=right;verticalAlign=middle;whiteSpace=wrap;rounded=0;shadow=0;dashed=1;fontFamily=Lucida Console;fontSize=10;" parent="1" vertex="1">
                    <mxGeometry x="230" y="250" width="100" height="20" as="geometry"/>
                </mxCell>
                <mxCell id="17" value="materialOffset + #sets" style="text;html=1;strokeColor=none;fillColor=none;align=left;verticalAlign=middle;whiteSpace=wrap;rounded=0;shadow=0;dashed=1;fontFamily=Lucida Console;fontSize=10;" parent="1" vertex="1">
                    <mxGeometry x="550" y="250" width="150" height="20" as="geometry"/>
                </mxCell>
                <mxCell id="19" value="FwdMtlInst*" style="rounded=0;whiteSpace=wrap;html=1;shadow=0;fontFamily=Lucida Console;" parent="1" vertex="1">
                    <mxGeometry x="240" y="300" width="100" height="20" as="geometry"/>
                </mxCell>
                <mxCell id="46" style="edgeStyle=none;rounded=0;html=1;exitX=0.5;exitY=0;exitDx=0;exitDy=0;entryX=0.5;entryY=1;entryDx=0;entryDy=0;dashed=1;fontFamily=Lucida Console;fontSize=10;" parent="1" source="65" target="36" edge="1">
                    <mxGeometry relative="1" as="geometry">
                        <Array as="points">
                            <mxPoint x="290" y="40"/>
                            <mxPoint x="400" y="40"/>
                        </Array>
                        <mxPoint x="290" y="80" as="sourcePoint"/>
                    </mxGeometry>
                </mxCell>
                <mxCell id="47" style="edgeStyle=none;rounded=0;html=1;exitX=0.5;exitY=0;exitDx=0;exitDy=0;entryX=0.5;entryY=1;entryDx=0;entryDy=0;dashed=1;fontFamily=Lucida Console;fontSize=10;" parent="1" source="58" target="38" edge="1">
                    <mxGeometry relative="1" as="geometry">
                        <Array as="points">
                            <mxPoint x="390" y="60"/>
                            <mxPoint x="480" y="60"/>
                        </Array>
                        <mxPoint x="390" y="80" as="sourcePoint"/>
                    </mxGeometry>
                </mxCell>
                <mxCell id="48" style="edgeStyle=none;rounded=0;html=1;exitX=0.5;exitY=0;exitDx=0;exitDy=0;entryX=0.5;entryY=1;entryDx=0;entryDy=0;dashed=1;fontFamily=Lucida Console;fontSize=10;" parent="1" source="64" target="32" edge="1">
                    <mxGeometry relative="1" as="geometry">
                        <Array as="points">
                            <mxPoint x="490" y="50"/>
                            <mxPoint x="240" y="50"/>
                        </Array>
                        <mxPoint x="490" y="80" as="sourcePoint"/>
                    </mxGeometry>
                </mxCell>
                <mxCell id="49" style="edgeStyle=none;rounded=0;html=1;exitX=0.5;exitY=0;exitDx=0;exitDy=0;dashed=1;fontFamily=Lucida Console;fontSize=10;entryX=0.5;entryY=1;entryDx=0;entryDy=0;" parent="1" source="66" target="43" edge="1">
                    <mxGeometry relative="1" as="geometry">
                        <mxPoint x="640" y="30" as="targetPoint"/>
                        <Array as="points">
                            <mxPoint x="590" y="50"/>
                            <mxPoint x="640" y="50"/>
                        </Array>
                        <mxPoint x="590" y="80" as="sourcePoint"/>
                    </mxGeometry>
                </mxCell>
                <mxCell id="29" style="edgeStyle=none;html=1;dashed=1;fontFamily=Lucida Console;rounded=0;entryX=1;entryY=1;entryDx=0;entryDy=0;" parent="1" target="64" edge="1">
                    <mxGeometry relative="1" as="geometry">
                        <mxPoint x="540" y="90" as="targetPoint"/>
                        <mxPoint x="340" y="140" as="sourcePoint"/>
                        <Array as="points">
                            <mxPoint x="340" y="140"/>
                            <mxPoint x="540" y="140"/>
                        </Array>
                    </mxGeometry>
                </mxCell>
                <mxCell id="30" value="pushConstantOffset" style="text;html=1;strokeColor=none;fillColor=none;align=right;verticalAlign=middle;whiteSpace=wrap;rounded=0;shadow=0;dashed=1;fontFamily=Lucida Console;fontSize=10;" parent="1" vertex="1">
                    <mxGeometry x="230" y="130" width="100" height="20" as="geometry"/>
                </mxCell>
                <mxCell id="31" value="pushConstantOffset + pushConstantCount" style="text;html=1;strokeColor=none;fillColor=none;align=left;verticalAlign=middle;whiteSpace=wrap;rounded=0;shadow=0;dashed=1;fontFamily=Lucida Console;fontSize=10;" parent="1" vertex="1">
                    <mxGeometry x="550" y="130" width="150" height="20" as="geometry"/>
                </mxCell>
                <mxCell id="32" value="byte" style="rounded=0;whiteSpace=wrap;html=1;shadow=0;fontFamily=Lucida Console;" parent="1" vertex="1">
                    <mxGeometry x="220" width="40" height="20" as="geometry"/>
                </mxCell>
                <mxCell id="33" value="byte" style="rounded=0;whiteSpace=wrap;html=1;shadow=0;fontFamily=Lucida Console;" parent="1" vertex="1">
                    <mxGeometry x="260" width="40" height="20" as="geometry"/>
                </mxCell>
                <mxCell id="34" value="byte" style="rounded=0;whiteSpace=wrap;html=1;shadow=0;fontFamily=Lucida Console;" parent="1" vertex="1">
                    <mxGeometry x="300" width="40" height="20" as="geometry"/>
                </mxCell>
                <mxCell id="35" value="byte" style="rounded=0;whiteSpace=wrap;html=1;shadow=0;fontFamily=Lucida Console;" parent="1" vertex="1">
                    <mxGeometry x="340" width="40" height="20" as="geometry"/>
                </mxCell>
                <mxCell id="36" value="byte" style="rounded=0;whiteSpace=wrap;html=1;shadow=0;fontFamily=Lucida Console;" parent="1" vertex="1">
                    <mxGeometry x="380" width="40" height="20" as="geometry"/>
                </mxCell>
                <mxCell id="37" value="byte" style="rounded=0;whiteSpace=wrap;html=1;shadow=0;fontFamily=Lucida Console;" parent="1" vertex="1">
                    <mxGeometry x="420" width="40" height="20" as="geometry"/>
                </mxCell>
                <mxCell id="38" value="byte" style="rounded=0;whiteSpace=wrap;html=1;shadow=0;fontFamily=Lucida Console;" parent="1" vertex="1">
                    <mxGeometry x="460" width="40" height="20" as="geometry"/>
                </mxCell>
                <mxCell id="39" value="byte" style="rounded=0;whiteSpace=wrap;html=1;shadow=0;fontFamily=Lucida Console;" parent="1" vertex="1">
                    <mxGeometry x="500" width="40" height="20" as="geometry"/>
                </mxCell>
                <mxCell id="40" value="byte" style="rounded=0;whiteSpace=wrap;html=1;shadow=0;fontFamily=Lucida Console;" parent="1" vertex="1">
                    <mxGeometry x="540" width="40" height="20" as="geometry"/>
                </mxCell>
                <mxCell id="41" value="byte" style="rounded=0;whiteSpace=wrap;html=1;shadow=0;fontFamily=Lucida Console;" parent="1" vertex="1">
                    <mxGeometry x="580" width="40" height="20" as="geometry"/>
                </mxCell>
                <mxCell id="43" value="byte" style="rounded=0;whiteSpace=wrap;html=1;shadow=0;fontFamily=Lucida Console;" parent="1" vertex="1">
                    <mxGeometry x="620" width="40" height="20" as="geometry"/>
                </mxCell>
                <mxCell id="50" value="set #0" style="text;html=1;strokeColor=none;fillColor=none;align=center;verticalAlign=middle;whiteSpace=wrap;rounded=0;shadow=0;dashed=1;fontFamily=Lucida Console;fontSize=10;" parent="1" vertex="1">
                    <mxGeometry x="340" y="320" width="100" height="20" as="geometry"/>
                </mxCell>
                <mxCell id="51" value="set #1" style="text;html=1;strokeColor=none;fillColor=none;align=center;verticalAlign=middle;whiteSpace=wrap;rounded=0;shadow=0;dashed=1;fontFamily=Lucida Console;fontSize=10;" parent="1" vertex="1">
                    <mxGeometry x="440" y="320" width="100" height="20" as="geometry"/>
                </mxCell>
                <mxCell id="52" value="set #0" style="text;html=1;strokeColor=none;fillColor=none;align=center;verticalAlign=middle;whiteSpace=wrap;rounded=0;shadow=0;dashed=1;fontFamily=Lucida Console;fontSize=10;" parent="1" vertex="1">
                    <mxGeometry x="540" y="320" width="100" height="20" as="geometry"/>
                </mxCell>
                <mxCell id="53" value="set #N-1" style="text;html=1;strokeColor=none;fillColor=none;align=center;verticalAlign=middle;whiteSpace=wrap;rounded=0;shadow=0;dashed=1;fontFamily=Lucida Console;fontSize=10;" parent="1" vertex="1">
                    <mxGeometry x="240" y="320" width="100" height="20" as="geometry"/>
                </mxCell>
                <mxCell id="58" value="PCRange" style="rounded=0;whiteSpace=wrap;html=1;shadow=0;fontFamily=Lucida Console;" parent="1" vertex="1">
                    <mxGeometry x="340" y="80" width="100" height="20" as="geometry"/>
                </mxCell>
                <mxCell id="59" value="pushConstantData" style="text;html=1;strokeColor=none;fillColor=none;align=left;verticalAlign=middle;whiteSpace=wrap;rounded=0;shadow=0;dashed=1;fontFamily=Lucida Console;fontSize=10;" parent="1" vertex="1">
                    <mxGeometry x="700" width="150" height="20" as="geometry"/>
                </mxCell>
                <mxCell id="61" value="pushConstantRanges" style="text;html=1;strokeColor=none;fillColor=none;align=left;verticalAlign=middle;whiteSpace=wrap;rounded=0;shadow=0;dashed=1;fontFamily=Lucida Console;fontSize=10;" parent="1" vertex="1">
                    <mxGeometry x="700" y="80" width="150" height="20" as="geometry"/>
                </mxCell>
                <mxCell id="63" value="materialInstances" style="text;html=1;strokeColor=none;fillColor=none;align=left;verticalAlign=middle;whiteSpace=wrap;rounded=0;shadow=0;dashed=1;fontFamily=Lucida Console;fontSize=10;" parent="1" vertex="1">
                    <mxGeometry x="700" y="300" width="150" height="20" as="geometry"/>
                </mxCell>
                <mxCell id="64" value="PCRange" style="rounded=0;whiteSpace=wrap;html=1;shadow=0;fontFamily=Lucida Console;" parent="1" vertex="1">
                    <mxGeometry x="440" y="80" width="100" height="20" as="geometry"/>
                </mxCell>
                <mxCell id="65" value="PCRange" style="rounded=0;whiteSpace=wrap;html=1;shadow=0;fontFamily=Lucida Console;" parent="1" vertex="1">
                    <mxGeometry x="240" y="80" width="100" height="20" as="geometry"/>
                </mxCell>
                <mxCell id="66" value="PCRange" style="rounded=0;whiteSpace=wrap;html=1;shadow=0;fontFamily=Lucida Console;" parent="1" vertex="1">
                    <mxGeometry x="540" y="80" width="100" height="20" as="geometry"/>
                </mxCell>
                <mxCell id="75" value="drawables" style="text;html=1;strokeColor=none;fillColor=none;align=left;verticalAlign=middle;whiteSpace=wrap;rounded=0;shadow=0;dashed=1;fontFamily=Lucida Console;fontSize=10;" parent="1" vertex="1">
                    <mxGeometry x="700" y="190" width="150" height="20" as="geometry"/>
                </mxCell>
                <mxCell id="76" value="IMesh" style="rounded=0;whiteSpace=wrap;html=1;shadow=0;fontFamily=Lucida Console;" parent="1" vertex="1">
                    <mxGeometry y="220" width="120" height="40" as="geometry"/>
                </mxCell>
                <mxCell id="77" value="ForwardMaterial" style="rounded=0;whiteSpace=wrap;html=1;shadow=0;fontFamily=Lucida Console;" parent="1" vertex="1">
                    <mxGeometry y="140" width="120" height="40" as="geometry"/>
                </mxCell>
            </root>
        </mxGraphModel>
    </diagram>
</mxfile>